<svg xmlns="http://www.w3.org/2000/svg" height="755.907" width="755.907"><path d="M755.907 755.907H0V0h755.907v755.907" fill="#fff"/><path d="M609.736 258.228L505.429 153.921a6.904 6.904 0 00-4.881-2.022h-233.64c-1.83 0-3.585.728-4.88 2.022l-59.603 59.603c-7.717-3.69-17.234-2.363-23.628 4.03-8.105 8.107-8.105 21.251 0 29.358 8.107 8.107 21.251 8.107 29.358 0 6.393-6.393 7.721-15.91 4.03-23.628l57.583-57.581h227.923l100.262 100.265v64.324l-11.272 11.272c-7.718-3.69-17.236-2.361-23.626 4.03-8.107 8.105-8.107 21.251-.003 29.358 8.105 8.103 21.253 8.105 29.357 0 6.394-6.392 7.722-15.91 4.032-23.63l13.292-13.291a6.899 6.899 0 002.023-4.88v-70.043a6.91 6.91 0 00-2.02-4.88M323.195 386.975c-9.04 0-16.71 5.789-19.556 13.854h-79.924l-53.316-53.318v-50.208c8.065-2.848 13.856-10.519 13.856-19.558 0-11.462-9.296-20.758-20.758-20.758-11.464 0-20.758 9.296-20.758 20.758 0 9.039 5.79 16.71 13.856 19.558v53.065c0 1.83.728 3.585 2.021 4.88l57.359 57.365a6.908 6.908 0 004.881 2.022h82.783c2.846 8.062 10.516 13.856 19.556 13.856 11.462 0 20.758-9.296 20.758-20.756 0-11.464-9.296-20.76-20.758-20.76M576.155 392.545c-11.464 0-20.76 9.296-20.76 20.758 0 9.041 5.79 16.709 13.857 19.56v3.456l-28.972 28.976h-38.399c-1.83 0-3.584.728-4.877 2.022l-30.127 30.115a6.902 6.902 0 00-2.022 4.881v63.924c-8.068 2.852-13.859 10.52-13.859 19.563 0 11.46 9.296 20.756 20.76 20.756 11.464 0 20.76-9.296 20.76-20.756 0-9.043-5.79-16.71-13.859-19.563v-61.062l26.083-26.076h38.399c1.83 0 3.585-.728 4.881-2.02l33.016-33.02a6.898 6.898 0 002.021-4.879v-6.317c8.068-2.851 13.858-10.519 13.858-19.56 0-11.462-9.296-20.758-20.76-20.758M437.213 525.83v-32.022c0-1.83-.728-3.585-2.024-4.881l-51.613-51.608c3.69-7.716 2.36-17.235-4.033-23.626-8.106-8.108-21.25-8.108-29.356 0-8.104 8.107-8.103 21.251.001 29.354 6.395 6.396 15.912 7.721 23.63 4.033l49.591 49.587v29.164c-8.068 2.846-13.858 10.514-13.858 19.556 0 11.461 9.296 20.756 20.76 20.756 11.464 0 20.76-9.295 20.76-20.756 0-9.042-5.79-16.71-13.858-19.556" fill="#000"/><path d="M221.917 304.324c-8.106-8.107-21.25-8.107-29.357 0-8.105 8.107-8.105 21.25 0 29.357 6.393 6.394 15.912 7.722 23.628 4.031l32.393 32.392a6.899 6.899 0 004.88 2.023h73.444c1.83 0 3.586-.728 4.879-2.023l31.156-31.159c7.719 3.691 17.237 2.36 23.63-4.03 8.103-8.107 8.103-21.252-.003-29.358-8.106-8.106-21.251-8.104-29.358 0-6.389 6.392-7.718 15.911-4.029 23.628l-29.135 29.136H256.32l-30.372-30.369c3.69-7.717 2.363-17.235-4.03-23.628" fill="#000"/><path d="M237.173 218.056c-8.106 8.105-8.108 21.25-.004 29.357 6.392 6.394 15.912 7.724 23.628 4.034l26.167 26.169v23.101c-8.065 2.848-13.856 10.518-13.856 19.558 0 11.462 9.296 20.757 20.757 20.757 11.464 0 20.759-9.295 20.759-20.757 0-9.04-5.79-16.71-13.856-19.558V274.76c0-1.831-.728-3.587-2.021-4.88l-28.188-28.191c3.69-7.717 2.362-17.236-4.03-23.63-8.104-8.105-21.25-8.106-29.356-.002M411.92 446.647c9.043 0 16.71-5.79 19.559-13.854h26.238a6.887 6.887 0 004.879-2.024l34.71-34.7h19.675c2.85 8.066 10.519 13.854 19.559 13.854 11.465 0 20.761-9.295 20.761-20.756 0-11.463-9.296-20.758-20.761-20.758-9.04 0-16.71 5.791-19.559 13.855h-22.533a6.895 6.895 0 00-4.879 2.021l-34.708 34.703H431.48c-2.848-8.065-10.516-13.856-19.559-13.856-11.463 0-20.759 9.295-20.759 20.756 0 11.464 9.296 20.759 20.759 20.759M396.717 358.692c-7.718-3.69-17.236-2.36-23.626 4.032-8.106 8.105-8.106 21.25-.003 29.357 8.107 8.107 21.253 8.107 29.357 0 6.394-6.393 7.722-15.909 4.032-23.626l67.684-67.682a6.908 6.908 0 002.022-4.88v-37.797c8.068-2.847 13.856-10.517 13.856-19.557 0-11.462-9.295-20.758-20.759-20.758-11.465 0-20.759 9.296-20.759 20.758 0 9.04 5.788 16.71 13.856 19.557v34.939l-65.66 65.657" fill="#000"/><path d="M304.58 183.488c-8.107-8.107-21.252-8.104-29.357 0-8.106 8.107-8.104 21.252 0 29.357 6.393 6.394 15.913 7.72 23.628 4.031l50.444 50.44a6.899 6.899 0 004.88 2.023h41.93c2.85 8.065 10.518 13.856 19.559 13.856 11.464 0 20.759-9.296 20.759-20.759 0-11.463-9.295-20.757-20.759-20.757-9.041 0-16.71 5.79-19.559 13.856h-39.073l-48.421-48.419c3.692-7.717 2.361-17.236-4.031-23.628" fill="#000"/><path d="M532.981 234.655l-43.414-43.418a6.91 6.91 0 00-4.882-2.021H378.656c-2.85-8.065-10.517-13.856-19.559-13.856-11.462 0-20.758 9.295-20.758 20.757 0 11.464 9.296 20.759 20.758 20.759 9.042 0 16.71-5.792 19.559-13.856h103.17l41.395 41.397c-3.689 7.716-2.36 17.235 4.03 23.627 8.106 8.107 21.254 8.107 29.357 0 8.105-8.104 8.105-21.25.003-29.356-6.394-6.392-15.911-7.723-23.63-4.033M582.885 302.499c0-11.463-9.296-20.759-20.76-20.759-9.041 0-16.708 5.79-19.557 13.856h-30.367a6.893 6.893 0 00-4.878 2.023l-56.128 56.116c-7.716-3.692-17.236-2.364-23.63 4.028-8.105 8.105-8.109 21.25-.002 29.357 8.102 8.107 21.249 8.107 29.356.003 6.393-6.394 7.724-15.911 4.033-23.63l54.107-54.093h27.509c2.85 8.065 10.516 13.856 19.557 13.856 11.464 0 20.76-9.295 20.76-20.757" fill="#000"/></svg>